<svg width="16" height="16" viewBox="0 0 16 16" fill="none" xmlns="http://www.w3.org/2000/svg">
<rect y="3" width="16" height="10" fill="#EC1C24"/>
<path d="M3.24274 4.51273L3.77749 5.5L4.97625 5.65795L4.10949 6.425L4.31374 7.51136L3.24274 6.99886L2.17149 7.51136L2.37599 6.425L1.50999 5.65795L2.70674 5.5L3.24274 4.51273Z" fill="#F9CB38"/>
<path d="M5.12674 3.68045L5.27499 3.95431L5.60849 3.99818L5.36774 4.21159L5.42399 4.51272L5.12674 4.37045L4.82974 4.51272L4.88599 4.21159L4.64549 3.99818L4.97824 3.95431L5.12674 3.68045Z" fill="#F9CB38"/>
<path d="M6.08951 4.66544L6.23801 4.93907L6.57001 4.98316L6.33026 5.19703L6.38676 5.49771L6.08951 5.35566L5.79251 5.49771L5.84876 5.19703L5.60851 4.98316L5.94076 4.93907L6.08951 4.66544Z" fill="#F9CB38"/>
<path d="M6.08951 6.24637L6.23801 6.52069L6.57001 6.56455L6.33026 6.77796L6.38676 7.0791L6.08951 6.93728L5.79251 7.0791L5.84876 6.77796L5.60851 6.56455L5.94076 6.52069L6.08951 6.24637Z" fill="#F9CB38"/>
<path d="M5.12674 7.35684L5.27499 7.63071L5.60849 7.67434L5.36774 7.88752L5.42399 8.18911L5.12674 8.04775L4.82974 8.18911L4.88599 7.88752L4.64549 7.67434L4.97824 7.63071L5.12674 7.35684Z" fill="#F9CB38"/>
</svg>
