<svg width="16" height="16" viewBox="0 0 16 16" fill="none" xmlns="http://www.w3.org/2000/svg">
<path d="M0 6.40912H16V9.59094H0V6.40912Z" fill="white"/>
<rect y="2.99493" width="16" height="3.41418" fill="#FF9933"/>
<rect y="9.58582" width="16" height="3.41418" fill="#138808"/>
<path fill-rule="evenodd" clip-rule="evenodd" d="M7.99999 9.28486C8.72187 9.28486 9.30707 8.69966 9.30707 7.97777C9.30707 7.25589 8.72187 6.67068 7.99999 6.67068C7.2781 6.67068 6.6929 7.25589 6.6929 7.97777C6.6929 8.69966 7.2781 9.28486 7.99999 9.28486ZM9.45231 7.97777C9.45231 8.77986 8.80208 9.43009 7.99999 9.43009C7.19789 9.43009 6.54767 8.77986 6.54767 7.97777C6.54767 7.17568 7.19789 6.52545 7.99999 6.52545C8.80208 6.52545 9.45231 7.17568 9.45231 7.97777Z" fill="#000080"/>
<path d="M7.99998 6.88855L8.05299 7.71056L8.41643 6.9717L8.15138 7.75123L8.77007 7.20733L8.22654 7.82639L9.00607 7.56097L8.2672 7.92478L9.08922 7.97779L8.2672 8.0308L9.00607 8.39424L8.22654 8.12919L8.77007 8.74788L8.15138 8.20435L8.41643 8.98388L8.05299 8.24502L7.99998 9.06703L7.94697 8.24502L7.58316 8.98388L7.84857 8.20435L7.22952 8.74788L7.77341 8.12919L6.99388 8.39424L7.73275 8.0308L6.91074 7.97779L7.73275 7.92478L6.99388 7.56097L7.77341 7.82639L7.22952 7.20733L7.84857 7.75123L7.58316 6.9717L7.94697 7.71056L7.99998 6.88855Z" fill="#000080"/>
<path d="M7.99998 8.34088C8.20051 8.34088 8.36306 8.17832 8.36306 7.9778C8.36306 7.77727 8.20051 7.61472 7.99998 7.61472C7.79946 7.61472 7.6369 7.77727 7.6369 7.9778C7.6369 8.17832 7.79946 8.34088 7.99998 8.34088Z" fill="#000080"/>
</svg>
