<svg width="16" height="16" viewBox="0 0 16 16" fill="none" xmlns="http://www.w3.org/2000/svg">
<path d="M0 6.40912H16V9.59094H0V6.40912Z" fill="white"/>
<path fill-rule="evenodd" clip-rule="evenodd" d="M7.359 6.9091C7.35575 6.91137 7.3535 6.91319 7.35175 6.91365C7.18375 7.00001 7.0525 7.12001 6.947 7.26547C6.83627 7.42065 6.75985 7.59395 6.722 7.77569C6.69559 7.8997 6.68511 8.02608 6.69075 8.15228C6.7025 8.39592 6.7685 8.62569 6.902 8.83865C6.93804 8.89712 6.97961 8.95263 7.02625 9.00456C6.97425 8.99433 6.77 8.83637 6.6865 8.74297C6.49562 8.53046 6.39509 8.26267 6.40325 7.98842C6.4205 7.43433 6.855 7.01524 7.359 6.90887" fill="#C32129"/>
<path fill-rule="evenodd" clip-rule="evenodd" d="M7.61275 6.57208C7.62575 6.65822 7.69225 6.72686 7.77975 6.7439C7.86425 6.76072 7.95549 6.72686 8.00574 6.64276C8.05749 6.72072 8.1305 6.76231 8.23075 6.74345C8.3295 6.72504 8.38025 6.66117 8.40225 6.57436C8.4035 6.58663 8.40675 6.59822 8.40725 6.60981C8.41125 6.68276 8.392 6.7489 8.34125 6.8064C8.297 6.85572 8.24074 6.88413 8.16924 6.88254C8.14075 6.88145 8.1128 6.87506 8.08713 6.86376C8.06146 6.85247 8.03861 6.8365 8.02 6.81686L8.00675 6.8039C7.9915 6.81686 7.9775 6.83117 7.9615 6.84231C7.869 6.90799 7.743 6.89208 7.66975 6.80504C7.6125 6.73776 7.5955 6.66095 7.609 6.57822C7.609 6.57686 7.61025 6.57526 7.61025 6.57413C7.61116 6.57354 7.612 6.57285 7.61275 6.57208Z" fill="#C32129"/>
<path fill-rule="evenodd" clip-rule="evenodd" d="M8.65324 6.9091C8.65699 6.91137 8.65924 6.91319 8.66099 6.91365C8.82899 7.00001 8.96024 7.12001 9.06574 7.26547C9.17824 7.42183 9.25049 7.59251 9.29024 7.77569C9.31699 7.89978 9.32749 8.02547 9.32149 8.15228C9.31024 8.39592 9.24424 8.62569 9.11099 8.83865C9.07657 8.894 9.03719 8.94668 8.99324 8.99615C8.99124 8.99842 8.98824 9.0016 8.98649 9.00456C9.03874 8.99433 9.24299 8.83637 9.32624 8.74297C9.42099 8.6366 9.49324 8.51956 9.54224 8.38978C9.59049 8.26064 9.61326 8.12476 9.60949 7.98842C9.59274 7.43433 9.15774 7.01524 8.65324 6.90887" fill="#C32129"/>
<path fill-rule="evenodd" clip-rule="evenodd" d="M9.0025 8.35025C9.08937 8.07956 9.07913 7.79075 8.97325 7.52571C8.88496 7.29639 8.72735 7.09434 8.5185 6.94275L8.5235 6.95048C8.6524 7.1212 8.73859 7.31553 8.776 7.5198C8.796 7.62911 8.8035 7.74002 8.796 7.85071C8.7755 8.17184 8.66025 8.46071 8.441 8.71434C8.3665 8.80048 8.28075 8.87798 8.18575 8.94593C8.1825 8.94752 8.17975 8.9498 8.17475 8.95321C8.18825 8.30162 8.201 7.65252 8.2145 7.00343C8.12625 6.98048 8.06225 6.92889 8.00575 6.86548C7.94875 6.92889 7.88525 6.98071 7.797 7.00343C7.8105 7.65252 7.82325 8.30162 7.83675 8.95321C7.83175 8.94957 7.829 8.94752 7.82575 8.94593C7.73079 8.87828 7.6451 8.80053 7.5705 8.71434C7.35125 8.46071 7.23625 8.17184 7.21475 7.85071C7.2075 7.74002 7.21475 7.62911 7.2355 7.5198C7.27268 7.31548 7.35889 7.1211 7.488 6.95048L7.49325 6.94275C7.28422 7.09425 7.12651 7.29632 7.03825 7.52571C6.93249 7.79077 6.92224 8.07955 7.009 8.35025C7.12475 8.71321 7.36875 8.98366 7.735 9.16321C7.61 9.20162 7.38725 9.2423 7.1295 9.20571C7.1315 9.20616 7.13325 9.2073 7.13475 9.20798C7.26575 9.25684 7.40225 9.28593 7.544 9.29593C7.644 9.30298 7.74475 9.30048 7.84425 9.28707C7.8535 9.28593 7.858 9.28821 7.86275 9.2948C7.908 9.36048 7.95375 9.42548 7.999 9.49116C8.0015 9.49389 8.0035 9.49661 8.00575 9.50002L8.0125 9.49116C8.05775 9.42548 8.10375 9.36048 8.149 9.2948C8.154 9.28821 8.158 9.28593 8.16725 9.28707C8.26675 9.30048 8.3675 9.30298 8.46775 9.29593C8.6083 9.28622 8.7463 9.25654 8.87675 9.20798L8.88175 9.20571C8.67928 9.23465 8.47217 9.2201 8.277 9.16321C8.643 8.98366 8.888 8.71321 9.003 8.35025" fill="#C32129"/>
<rect y="2.99493" width="16" height="3.41418" fill="#29B473"/>
<rect y="9.58582" width="16" height="3.41418" fill="#EC1C24"/>
</svg>
