<svg width="16" height="16" viewBox="0 0 16 16" fill="none" xmlns="http://www.w3.org/2000/svg">
<path d="M15.7241 2.75861H0.275874C0.123531 2.75861 0 2.88211 0 3.03445V12.9655C0 13.1178 0.123531 13.2413 0.275874 13.2413H15.7241C15.8765 13.2413 16 13.1178 16 12.9655V3.03445C16 2.88211 15.8764 2.75861 15.7241 2.75861Z" fill="#82C3D2"/>
<path d="M1.85992 4.01394C1.83495 3.90822 1.82873 3.86925 1.87617 3.82185C1.89929 3.79872 1.89929 3.76125 1.87617 3.73813C1.85304 3.715 1.81557 3.715 1.79245 3.73813C1.69645 3.83416 1.71936 3.93382 1.7442 4.03935C1.66851 4.01463 1.59001 4.03297 1.54795 4.08603C1.52707 4.1125 1.4867 4.18675 1.56236 4.30532C1.57995 4.33285 1.61632 4.34094 1.64411 4.3235C1.6717 4.30591 1.67973 4.26925 1.66214 4.24175C1.63376 4.1971 1.63292 4.16957 1.64086 4.1595C1.65023 4.1476 1.67929 4.14132 1.70973 4.1521C1.72939 4.15891 1.77507 4.1825 1.77507 4.25375C1.77507 4.31066 1.74876 4.36282 1.70289 4.39669C1.65692 4.43069 1.59742 4.44028 1.54007 4.42247C1.46926 4.40085 1.41979 4.32625 1.41979 4.24103C1.41979 4.18007 1.43286 4.11844 1.45686 4.06444C1.46067 4.05647 1.55117 3.869 1.57448 3.79913C1.62057 3.66091 1.57373 3.59141 1.54176 3.56238C1.49898 3.52341 1.43645 3.51369 1.38264 3.53729C1.37445 3.54091 1.3677 3.54616 1.36061 3.55104C1.35351 3.54613 1.34673 3.54091 1.33857 3.53729C1.28479 3.51369 1.22229 3.52341 1.17945 3.56238C1.14748 3.59141 1.10064 3.66094 1.14673 3.79913C1.17004 3.869 1.26051 4.05647 1.26351 4.06272C1.28829 4.11847 1.30139 4.1801 1.30139 4.24107C1.30139 4.32632 1.25195 4.40088 1.18111 4.4225C1.12354 4.44028 1.06423 4.43082 1.01829 4.39672C0.972419 4.36282 0.946107 4.31069 0.946107 4.25378C0.946107 4.18253 0.991794 4.15897 1.01145 4.15213C1.04198 4.14138 1.07089 4.1476 1.08033 4.15953C1.08826 4.1696 1.08742 4.19713 1.05904 4.24178C1.04145 4.26932 1.04948 4.30597 1.07708 4.32353C1.10489 4.34113 1.14139 4.33291 1.15883 4.30535C1.23445 4.18678 1.19411 4.11257 1.17323 4.08607C1.13114 4.033 1.05267 4.01466 0.976982 4.03938C1.00186 3.93391 1.02473 3.83419 0.928732 3.73816C0.905607 3.71504 0.868138 3.71504 0.845013 3.73816C0.821888 3.76129 0.821888 3.79875 0.845013 3.82188C0.892419 3.86929 0.886263 3.90825 0.861263 4.01397C0.846263 4.07732 0.827638 4.15632 0.827638 4.25369C0.827638 4.31847 0.850419 4.38044 0.888732 4.43135H0.886826C0.854107 4.43135 0.827607 4.45782 0.827607 4.49057C0.827607 4.52328 0.854076 4.54978 0.886826 4.54978H0.888732C0.850419 4.60069 0.827638 4.66263 0.827638 4.72741C0.827638 4.82478 0.846263 4.90378 0.861232 4.96716C0.886201 5.07288 0.892419 5.11185 0.844982 5.15925C0.821857 5.18238 0.821857 5.21985 0.844982 5.24297C0.856544 5.25453 0.871701 5.26031 0.886857 5.26031C0.901982 5.26031 0.917169 5.25453 0.928732 5.24297C1.02473 5.14694 1.00183 5.04725 0.976982 4.94175C1.05267 4.96638 1.13117 4.94813 1.17323 4.89506C1.19411 4.8686 1.23448 4.79435 1.15883 4.67578C1.14129 4.64825 1.1047 4.64007 1.07708 4.6576C1.04948 4.67519 1.04145 4.71185 1.05904 4.73935C1.08742 4.784 1.08826 4.81153 1.08033 4.8216C1.07092 4.83338 1.04198 4.83963 1.01145 4.829C0.991794 4.82219 0.946107 4.7986 0.946107 4.72735C0.946107 4.67044 0.972419 4.61828 1.01829 4.58441C1.06426 4.55041 1.1237 4.54069 1.18111 4.55863C1.25192 4.58025 1.30139 4.65485 1.30139 4.74006C1.30139 4.80103 1.28832 4.86266 1.26351 4.91841L0.875669 5.79094C0.843794 5.86263 0.827607 5.93888 0.827607 6.01738C0.827607 6.11841 0.873544 6.21066 0.945857 6.26697C0.873576 6.32328 0.827607 6.41553 0.827607 6.51656C0.827607 6.59509 0.843826 6.67131 0.875669 6.743L1.26345 7.61547C1.28823 7.67122 1.30132 7.73284 1.30132 7.79381C1.30132 7.87906 1.25189 7.95362 1.18104 7.97525C1.12348 7.99318 1.06417 7.98356 1.01823 7.94946C0.972357 7.91556 0.946044 7.86343 0.946044 7.80653C0.946044 7.73528 0.991732 7.71172 1.01139 7.70487C1.04192 7.69422 1.07083 7.70034 1.08026 7.71228C1.0882 7.72234 1.08736 7.74987 1.05898 7.79453C1.04139 7.82206 1.04942 7.85872 1.07701 7.87628C1.10483 7.89387 1.14132 7.88575 1.15876 7.85809C1.23439 7.73953 1.19404 7.66531 1.17317 7.63881C1.13108 7.58575 1.05261 7.56747 0.976919 7.59212C1.00179 7.48665 1.02467 7.38693 0.928669 7.2909C0.905544 7.26778 0.868076 7.26778 0.844951 7.2909C0.821826 7.31403 0.821826 7.3515 0.844951 7.37462C0.892357 7.42203 0.886201 7.461 0.861201 7.56672C0.846232 7.63009 0.827607 7.70909 0.827607 7.80647C0.827607 7.87125 0.850388 7.93321 0.888701 7.98412H0.886794C0.854076 7.98412 0.827576 8.01059 0.827576 8.04334C0.827576 8.07609 0.854044 8.10256 0.886794 8.10256H0.888701C0.850357 8.15346 0.827607 8.2154 0.827607 8.28021C0.827607 8.37759 0.846232 8.45659 0.861201 8.51996C0.886169 8.62568 0.892388 8.66465 0.844951 8.71206C0.821826 8.73518 0.821826 8.77265 0.844951 8.79578C0.856513 8.80734 0.871669 8.81312 0.886826 8.81312C0.901951 8.81312 0.917138 8.80734 0.9287 8.79578C1.0247 8.69974 1.00179 8.60006 0.97695 8.49456C1.05264 8.51918 1.13114 8.50093 1.1732 8.44787C1.19407 8.4214 1.23445 8.34715 1.15879 8.22859C1.14126 8.20106 1.10467 8.19287 1.07704 8.2104C1.04945 8.228 1.04142 8.26465 1.05901 8.29215C1.08739 8.33681 1.08823 8.36434 1.08029 8.3744C1.07089 8.38631 1.04195 8.39259 1.01142 8.38181C0.991763 8.375 0.946075 8.3514 0.946075 8.28015C0.946075 8.22325 0.972388 8.17109 1.01826 8.13721C1.06423 8.10321 1.12367 8.0935 1.18107 8.11143C1.25189 8.13306 1.30136 8.20765 1.30136 8.29287C1.30136 8.35384 1.28829 8.41546 1.26348 8.47121L0.875669 9.34384C0.843794 9.41552 0.827607 9.49177 0.827607 9.57027C0.827607 9.67131 0.873544 9.76356 0.945857 9.81987C0.873576 9.87618 0.827607 9.96843 0.827607 10.0695C0.827607 10.148 0.843826 10.2242 0.875669 10.2959L1.26345 11.1684C1.28823 11.2241 1.30132 11.2857 1.30132 11.3467C1.30132 11.432 1.25189 11.5065 1.18104 11.5281C1.12348 11.5461 1.06417 11.5364 1.01823 11.5024C0.972357 11.4685 0.946044 11.4163 0.946044 11.3594C0.946044 11.2882 0.991732 11.2646 1.01139 11.2578C1.04192 11.2471 1.07083 11.2532 1.08026 11.2652C1.0882 11.2752 1.08736 11.3028 1.05898 11.3474C1.04139 11.375 1.04942 11.4116 1.07701 11.4292C1.10483 11.4468 1.14132 11.4386 1.15876 11.411C1.23439 11.2924 1.19404 11.2182 1.17317 11.1917C1.13108 11.1385 1.05261 11.1203 0.976919 11.145C1.00179 11.0396 1.02467 10.9398 0.928669 10.8438C0.905544 10.8207 0.868076 10.8207 0.844951 10.8438C0.821826 10.8669 0.821826 10.9044 0.844951 10.9275C0.892357 10.9749 0.886201 11.0139 0.861201 11.1196C0.846232 11.183 0.827607 11.262 0.827607 11.3593C0.827607 11.4521 0.872076 11.5405 0.946419 11.5962C0.872076 11.6519 0.827607 11.7403 0.827607 11.8331C0.827607 11.9305 0.846232 12.0095 0.861201 12.0728C0.886169 12.1785 0.892388 12.2175 0.844951 12.2649C0.821826 12.2881 0.821826 12.3255 0.844951 12.3486C0.856513 12.3602 0.871669 12.366 0.886826 12.366C0.901951 12.366 0.917138 12.3602 0.9287 12.3486C1.0247 12.2526 1.00179 12.1529 0.97695 12.0474C1.05264 12.0721 1.13114 12.0538 1.1732 12.0007C1.19407 11.9743 1.23445 11.9 1.15879 11.7815C1.14126 11.7539 1.10467 11.7458 1.07704 11.7633C1.04945 11.7809 1.04142 11.8175 1.05901 11.845C1.08739 11.8897 1.08823 11.9172 1.08029 11.9273C1.07089 11.9392 1.04195 11.9453 1.01142 11.9347C0.991763 11.9279 0.946075 11.9043 0.946075 11.833C0.946075 11.7761 0.972388 11.724 1.01826 11.6901C1.06423 11.6561 1.12367 11.6465 1.18107 11.6643C1.25189 11.6859 1.30136 11.7605 1.30136 11.8457C1.30136 11.9067 1.28829 11.9683 1.26429 12.0223C1.26048 12.0303 1.16998 12.2178 1.14667 12.2876C1.10058 12.4259 1.14742 12.4954 1.17939 12.5244C1.20673 12.5493 1.24195 12.5623 1.27795 12.5623C1.29836 12.5623 1.31904 12.5581 1.33854 12.5495C1.34673 12.5459 1.35348 12.5406 1.36057 12.5358C1.36767 12.5407 1.37445 12.5459 1.38261 12.5495C1.40207 12.5581 1.42279 12.5623 1.4432 12.5623C1.47911 12.5623 1.51439 12.5493 1.54176 12.5244C1.57373 12.4954 1.62057 12.4258 1.57448 12.2876C1.55117 12.2178 1.4607 12.0303 1.4577 12.0241C1.43292 11.9683 1.41982 11.9067 1.41982 11.8457C1.41982 11.7605 1.46926 11.6859 1.54011 11.6643C1.5977 11.6465 1.65698 11.6561 1.70292 11.6901C1.74879 11.724 1.77511 11.7761 1.77511 11.833C1.77511 11.9042 1.72942 11.9278 1.70976 11.9346C1.67936 11.9453 1.65023 11.9392 1.64089 11.9272C1.63295 11.9172 1.63379 11.8896 1.66217 11.845C1.67976 11.8175 1.67173 11.7808 1.64414 11.7632C1.61648 11.7459 1.58001 11.754 1.56239 11.7814C1.48676 11.9 1.52711 11.9742 1.54798 12.0007C1.59007 12.0538 1.66854 12.0721 1.74423 12.0474C1.71936 12.1529 1.69648 12.2526 1.79248 12.3486C1.80404 12.3602 1.8192 12.366 1.83436 12.366C1.84951 12.366 1.86467 12.3602 1.87623 12.3486C1.89935 12.3255 1.89935 12.288 1.87623 12.2649C1.82882 12.2175 1.83498 12.1785 1.85998 12.0728C1.87495 12.0094 1.89357 11.9304 1.89357 11.8331C1.89357 11.7402 1.84911 11.6519 1.77476 11.5962C1.84911 11.5405 1.89357 11.4521 1.89357 11.3593C1.89357 11.2619 1.87495 11.1829 1.85998 11.1196C1.83501 11.0139 1.82879 10.9749 1.87623 10.9275C1.89935 10.9043 1.89935 10.8669 1.87623 10.8437C1.8531 10.8206 1.81564 10.8206 1.79251 10.8437C1.69651 10.9398 1.71942 11.0394 1.74426 11.145C1.66857 11.1202 1.59007 11.1384 1.54801 11.1916C1.52714 11.2181 1.48676 11.2924 1.56242 11.4109C1.58001 11.4385 1.61639 11.4466 1.64417 11.4291C1.67176 11.4115 1.67979 11.3749 1.6622 11.3474C1.63382 11.3027 1.63298 11.2752 1.64092 11.2651C1.65029 11.2532 1.67936 11.2471 1.70979 11.2577C1.72945 11.2645 1.77514 11.2881 1.77514 11.3594C1.77514 11.4163 1.74882 11.4684 1.70295 11.5023C1.65698 11.5363 1.59748 11.546 1.54014 11.5281C1.46932 11.5065 1.41986 11.4319 1.41986 11.3466C1.41986 11.2857 1.43292 11.2241 1.45773 11.1683L1.84551 10.2958C1.87739 10.2241 1.89357 10.1479 1.89357 10.0694C1.89357 9.96837 1.84764 9.87612 1.77532 9.8198C1.8476 9.76349 1.89357 9.67124 1.89357 9.57021C1.89357 9.49168 1.87735 9.41546 1.84551 9.34378L1.45776 8.47137C1.43298 8.41562 1.41989 8.35399 1.41989 8.29303C1.41989 8.20778 1.46932 8.13321 1.54017 8.11159C1.59776 8.09378 1.65704 8.10337 1.70298 8.13737C1.74886 8.17128 1.77517 8.2234 1.77517 8.28031C1.77517 8.35156 1.72948 8.37512 1.70982 8.38196C1.67942 8.39271 1.65029 8.3865 1.64095 8.37456C1.63301 8.3645 1.63386 8.33696 1.66223 8.29231C1.67982 8.26478 1.67179 8.22815 1.6442 8.21056C1.61654 8.19321 1.58007 8.20131 1.56245 8.22875C1.48682 8.34731 1.52717 8.42153 1.54804 8.44803C1.59014 8.50109 1.66861 8.51937 1.74429 8.49471C1.71942 8.60018 1.69654 8.6999 1.79254 8.79593C1.80411 8.80749 1.81926 8.81328 1.83442 8.81328C1.84957 8.81328 1.86473 8.80749 1.87629 8.79593C1.89942 8.77281 1.89942 8.73534 1.87629 8.71221C1.82889 8.66481 1.83504 8.62584 1.86004 8.52012C1.87501 8.45674 1.89364 8.37775 1.89364 8.28037C1.89364 8.21559 1.87085 8.15362 1.83254 8.10271H1.83445C1.86717 8.10271 1.89367 8.07625 1.89367 8.0435C1.89367 8.01078 1.8672 7.98428 1.83445 7.98428H1.83254C1.87089 7.93337 1.89364 7.87147 1.89364 7.80662C1.89364 7.70925 1.87501 7.63025 1.86004 7.56687C1.83507 7.46115 1.82885 7.42218 1.87629 7.37478C1.89942 7.35165 1.89942 7.31419 1.87629 7.29106C1.85317 7.26794 1.8157 7.26794 1.79257 7.29106C1.69657 7.38709 1.71948 7.48678 1.74432 7.59228C1.66864 7.56765 1.59014 7.5859 1.54807 7.63897C1.5272 7.66543 1.48682 7.73968 1.56248 7.85825C1.58007 7.88578 1.61645 7.89378 1.64423 7.87643C1.67182 7.85884 1.67986 7.82218 1.66226 7.79468C1.63389 7.75003 1.63304 7.7225 1.64098 7.71243C1.65036 7.70053 1.67942 7.6944 1.70986 7.70503C1.72951 7.71184 1.7752 7.73543 1.7752 7.80668C1.7752 7.86359 1.74889 7.91575 1.70301 7.94962C1.65704 7.98362 1.59754 7.99322 1.5402 7.9754C1.46939 7.95378 1.41992 7.87918 1.41992 7.79397C1.41992 7.733 1.43298 7.67137 1.45779 7.61562L1.84557 6.74315C1.87745 6.67147 1.89364 6.59522 1.89364 6.51672C1.89364 6.41569 1.8477 6.32344 1.77539 6.26712C1.84767 6.21081 1.89364 6.11856 1.89364 6.01753C1.89364 5.939 1.87742 5.86278 1.84557 5.79109L1.45779 4.91863C1.43301 4.86288 1.41992 4.80125 1.41992 4.74028C1.41992 4.65503 1.46936 4.58047 1.5402 4.55885C1.59779 4.54103 1.65707 4.55063 1.70301 4.58463C1.74889 4.61853 1.7752 4.67066 1.7752 4.72757C1.7752 4.79881 1.72951 4.82238 1.70986 4.82922C1.67945 4.83988 1.65032 4.8336 1.64098 4.82181C1.63304 4.81175 1.63389 4.78422 1.66226 4.73957C1.67986 4.71203 1.67182 4.67538 1.64423 4.65781C1.61657 4.64047 1.58011 4.64844 1.56248 4.67597C1.48686 4.79453 1.5272 4.86875 1.54807 4.89525C1.59017 4.94831 1.66864 4.9666 1.74432 4.94194C1.71945 5.04741 1.69657 5.14713 1.79257 5.24316C1.80414 5.25472 1.81929 5.2605 1.83445 5.2605C1.8496 5.2605 1.86476 5.25472 1.87632 5.24316C1.89945 5.22003 1.89945 5.18256 1.87632 5.15944C1.82892 5.11203 1.83507 5.07306 1.86007 4.96735C1.87504 4.90397 1.89367 4.82497 1.89367 4.7276C1.89367 4.66281 1.87089 4.60085 1.83257 4.54994H1.83448C1.8672 4.54994 1.8937 4.52347 1.8937 4.49072C1.8937 4.458 1.86723 4.4315 1.83448 4.4315H1.83257C1.87092 4.3806 1.89367 4.31869 1.89367 4.25385C1.89348 4.15632 1.87485 4.07732 1.85992 4.01394ZM1.25898 3.7616C1.23795 3.69847 1.24529 3.6625 1.25917 3.64988C1.26823 3.64132 1.28198 3.64166 1.2907 3.6456C1.30139 3.65035 1.30139 3.65788 1.30139 3.66157C1.30139 3.69429 1.32786 3.72079 1.36061 3.72079C1.39332 3.72079 1.41982 3.69432 1.41982 3.66157C1.41982 3.65788 1.41982 3.65035 1.43051 3.6456C1.43907 3.64166 1.45273 3.64132 1.46204 3.64988C1.47592 3.6625 1.48326 3.69847 1.46223 3.7616C1.44692 3.80738 1.39151 3.92657 1.36064 3.99125C1.33039 3.92807 1.27439 3.80769 1.25898 3.7616ZM1.36057 6.20487C1.37757 6.22797 1.39679 6.24947 1.42017 6.26697C1.39679 6.2845 1.37757 6.30597 1.36057 6.32906C1.34357 6.30597 1.32436 6.28447 1.30098 6.26697C1.32436 6.24944 1.34357 6.228 1.36057 6.20487ZM1.36057 9.75774C1.37757 9.78084 1.39679 9.80234 1.42017 9.81984C1.39679 9.83737 1.37757 9.85884 1.36057 9.88193C1.34357 9.85884 1.32436 9.83734 1.30098 9.81984C1.32436 9.8023 1.34357 9.7809 1.36057 9.75774ZM1.46214 12.3252C1.48317 12.3884 1.47582 12.4243 1.46195 12.437C1.45264 12.4454 1.43898 12.4451 1.43042 12.4412C1.41973 12.4365 1.41973 12.429 1.41973 12.4253C1.41973 12.3925 1.39326 12.366 1.36051 12.366C1.32776 12.366 1.30129 12.3925 1.30129 12.4253C1.30129 12.429 1.30129 12.4365 1.29061 12.4412C1.28192 12.4451 1.26817 12.4454 1.25907 12.437C1.2452 12.4243 1.23786 12.3884 1.25889 12.3252C1.2742 12.2795 1.32961 12.1603 1.36048 12.0956C1.39073 12.1587 1.44673 12.2791 1.46214 12.3252ZM1.41961 11.5963C1.3972 11.6137 1.37732 11.6346 1.36057 11.6582C1.34386 11.6346 1.32395 11.6137 1.30154 11.5963C1.32395 11.5788 1.34382 11.558 1.36057 11.5344C1.37729 11.558 1.39717 11.5788 1.41961 11.5963ZM1.73717 10.2477L1.36054 11.0951L0.983919 10.2477C0.959138 10.192 0.946044 10.1304 0.946044 10.0694C0.946044 9.98415 0.995482 9.90955 1.06633 9.88796C1.12389 9.87015 1.18326 9.87974 1.22914 9.91374C1.27501 9.94765 1.30132 9.99977 1.30132 10.0567C1.30132 10.1279 1.25564 10.1515 1.23598 10.1583C1.20545 10.169 1.17642 10.1629 1.16711 10.1509C1.15917 10.1409 1.16001 10.1133 1.18839 10.0687C1.20598 10.0411 1.19795 10.0045 1.17036 9.98693C1.1427 9.96959 1.10623 9.97768 1.08861 10.0051C1.01298 10.1237 1.05333 10.1979 1.0742 10.2244C1.11708 10.2785 1.19773 10.2971 1.27486 10.2702C1.28364 10.2671 1.29254 10.2634 1.30132 10.2589V10.4086C1.30132 10.4086 1.30123 10.4086 1.30123 10.4086C1.29945 10.3774 1.27364 10.3528 1.24214 10.3528C1.20942 10.3528 1.18292 10.3792 1.18292 10.412C1.18292 10.4506 1.20992 10.5176 1.30132 10.5384V10.6488C1.30132 10.6816 1.32779 10.7081 1.36054 10.7081C1.39329 10.7081 1.41976 10.6816 1.41976 10.6488V10.5384C1.51117 10.5176 1.53817 10.4506 1.53817 10.412C1.53817 10.3793 1.51176 10.3508 1.47907 10.3508C1.44636 10.3508 1.41998 10.3754 1.41998 10.4081C1.41995 10.4082 1.41976 10.4083 1.41973 10.4084V10.259C1.42851 10.2634 1.43742 10.2672 1.4462 10.2702C1.52332 10.2972 1.60395 10.2786 1.64686 10.2245C1.66773 10.198 1.70811 10.1237 1.63245 10.0052C1.61486 9.97765 1.57832 9.96955 1.5507 9.98699C1.52311 10.0046 1.51507 10.0412 1.53267 10.0687C1.56104 10.1134 1.56189 10.1409 1.55395 10.151C1.54457 10.1629 1.51554 10.169 1.48507 10.1584C1.46542 10.1516 1.41973 10.128 1.41973 10.0567C1.41973 9.99984 1.44604 9.94768 1.49192 9.91381C1.53789 9.87981 1.59739 9.87009 1.65473 9.88802C1.72554 9.90965 1.77501 9.98424 1.77501 10.0695C1.77507 10.1304 1.76201 10.192 1.73717 10.2477ZM1.73717 9.39193C1.76195 9.44768 1.77504 9.50931 1.77504 9.57027C1.77504 9.65552 1.72561 9.73009 1.65476 9.75171C1.59729 9.76965 1.53782 9.75993 1.49195 9.72593C1.44607 9.69202 1.41976 9.6399 1.41976 9.58299C1.41976 9.51174 1.46545 9.48818 1.48511 9.48134C1.51557 9.47068 1.54464 9.47681 1.55398 9.48874C1.56192 9.49881 1.56107 9.52634 1.5327 9.57099C1.51511 9.59852 1.52314 9.63515 1.55073 9.65274C1.57854 9.67034 1.61504 9.66221 1.63248 9.63456C1.70811 9.51599 1.66776 9.44177 1.64689 9.41527C1.60398 9.36115 1.52336 9.34274 1.44623 9.36949C1.43745 9.37253 1.42854 9.37634 1.41976 9.38077V9.23099L1.41986 9.23118C1.42164 9.26227 1.44745 9.28693 1.47895 9.28693C1.51167 9.28693 1.53817 9.26046 1.53817 9.22771C1.53817 9.18909 1.51117 9.12209 1.41976 9.10134V8.99087C1.41976 8.95815 1.39329 8.93165 1.36054 8.93165C1.32779 8.93165 1.30132 8.95812 1.30132 8.99087V9.10134C1.20992 9.12209 1.18292 9.18909 1.18292 9.22771C1.18292 9.26043 1.20932 9.28887 1.24201 9.28887C1.27473 9.28887 1.30111 9.26434 1.30111 9.23162C1.30114 9.23152 1.30132 9.23137 1.30132 9.23137L1.30136 9.38074C1.29257 9.37627 1.28367 9.37249 1.27489 9.36946C1.19776 9.34274 1.11711 9.36115 1.07423 9.41524C1.05336 9.44171 1.01298 9.51596 1.08864 9.63452C1.10623 9.66206 1.14276 9.67006 1.17039 9.65271C1.19798 9.63512 1.20601 9.59846 1.18842 9.57096C1.16004 9.52631 1.1592 9.49878 1.16714 9.48871C1.17645 9.47681 1.20548 9.47068 1.23601 9.48131C1.25567 9.48812 1.30136 9.51171 1.30136 9.58296C1.30136 9.63987 1.27504 9.69202 1.22917 9.7259C1.1832 9.7599 1.12383 9.76962 1.06636 9.75168C0.995544 9.73005 0.946075 9.65546 0.946075 9.57024C0.946075 9.50927 0.959138 9.44765 0.98395 9.3919L1.36057 8.54453L1.73717 9.39193ZM1.41961 8.04343C1.3972 8.06087 1.37732 8.08175 1.36057 8.10534C1.34386 8.08175 1.32395 8.0609 1.30154 8.04343C1.32395 8.026 1.34382 8.00512 1.36057 7.98153C1.37729 8.00509 1.39717 8.02596 1.41961 8.04343ZM1.73717 6.69491L1.36054 7.54228L0.983919 6.69491C0.959138 6.63916 0.946044 6.57753 0.946044 6.51656C0.946044 6.43131 0.995482 6.35675 1.06633 6.33512C1.12389 6.31731 1.18326 6.32691 1.22914 6.36091C1.27501 6.39481 1.30132 6.44694 1.30132 6.50384C1.30132 6.57509 1.25564 6.59866 1.23598 6.6055C1.20545 6.61625 1.17642 6.61003 1.16711 6.59809C1.15917 6.58803 1.16001 6.5605 1.18839 6.51584C1.20598 6.48831 1.19795 6.45166 1.17036 6.43409C1.1427 6.41666 1.10623 6.42472 1.08861 6.45228C1.01298 6.57084 1.05333 6.64506 1.0742 6.67156C1.11708 6.72569 1.19773 6.74419 1.27486 6.71734C1.28364 6.71431 1.29254 6.71053 1.30132 6.70606V6.85581L1.30123 6.85562C1.29945 6.82453 1.27364 6.79987 1.24214 6.79987C1.20942 6.79987 1.18292 6.82634 1.18292 6.85909C1.18292 6.89772 1.20992 6.96472 1.30132 6.98547V7.09594C1.30132 7.12865 1.32779 7.15515 1.36054 7.15515C1.39329 7.15515 1.41976 7.12869 1.41976 7.09594V6.98547C1.51117 6.96472 1.53817 6.89772 1.53817 6.85909C1.53817 6.82637 1.51176 6.7979 1.47907 6.7979C1.44636 6.7979 1.41998 6.82244 1.41998 6.85515C1.41995 6.85525 1.41976 6.8554 1.41976 6.8554L1.41973 6.70603C1.42851 6.7105 1.43742 6.71428 1.4462 6.71731C1.52332 6.74412 1.60395 6.72562 1.64686 6.67153C1.66773 6.64506 1.70811 6.57081 1.63245 6.45225C1.61486 6.42459 1.57832 6.41653 1.5507 6.43406C1.52311 6.45166 1.51507 6.48831 1.53267 6.51581C1.56104 6.56047 1.56189 6.588 1.55395 6.59806C1.54457 6.60997 1.51554 6.61625 1.48507 6.60547C1.46542 6.59866 1.41973 6.57506 1.41973 6.50381C1.41973 6.44691 1.44604 6.39475 1.49192 6.36087C1.53789 6.32687 1.59739 6.31728 1.65473 6.33509C1.72554 6.35672 1.77501 6.43131 1.77501 6.51653C1.77507 6.57753 1.76201 6.63916 1.73717 6.69491ZM1.73717 5.83906C1.76195 5.89481 1.77504 5.95644 1.77504 6.01741C1.77504 6.10266 1.72561 6.17722 1.65476 6.19884C1.59729 6.21678 1.53782 6.20706 1.49195 6.17306C1.44607 6.13916 1.41976 6.08703 1.41976 6.03012C1.41976 5.95887 1.46545 5.93531 1.48511 5.92847C1.51557 5.91781 1.54464 5.92394 1.55398 5.93588C1.56192 5.94594 1.56107 5.97347 1.5327 6.01812C1.51511 6.04566 1.52314 6.08228 1.55073 6.09987C1.57854 6.11731 1.61504 6.10934 1.63248 6.08169C1.70811 5.96313 1.66776 5.88891 1.64689 5.86241C1.60398 5.80828 1.52336 5.78978 1.44623 5.81663C1.43745 5.81966 1.42854 5.82344 1.41976 5.82791V5.67816C1.41976 5.67819 1.41986 5.67825 1.41986 5.67825C1.42164 5.70944 1.44745 5.73403 1.47895 5.73403C1.51167 5.73403 1.53817 5.70756 1.53817 5.67481C1.53817 5.63619 1.51117 5.56919 1.41976 5.54844V5.43797C1.41976 5.40525 1.39329 5.37875 1.36054 5.37875C1.32779 5.37875 1.30132 5.40522 1.30132 5.43797V5.54844C1.20992 5.56919 1.18292 5.63619 1.18292 5.67481C1.18292 5.70753 1.20932 5.736 1.24201 5.736C1.27473 5.736 1.30111 5.71147 1.30111 5.67875C1.30114 5.67866 1.30132 5.6785 1.30136 5.67841V5.82788C1.29257 5.82341 1.28367 5.81963 1.27489 5.81659C1.19776 5.78978 1.11711 5.80828 1.07423 5.86238C1.05336 5.88884 1.01298 5.96309 1.08864 6.08166C1.10623 6.10919 1.14276 6.11719 1.17039 6.09984C1.19798 6.08225 1.20601 6.04559 1.18842 6.01809C1.16004 5.97344 1.1592 5.94591 1.16714 5.93584C1.17645 5.92394 1.20548 5.91781 1.23601 5.92844C1.25567 5.93525 1.30136 5.95884 1.30136 6.03009C1.30136 6.087 1.27504 6.13916 1.22917 6.17303C1.1832 6.20703 1.12383 6.21675 1.06636 6.19881C0.995544 6.17719 0.946075 6.10259 0.946075 6.01738C0.946075 5.95641 0.959138 5.89478 0.98395 5.83903L1.36057 4.99166L1.73717 5.83906ZM1.30151 4.49057C1.32392 4.47313 1.34379 4.45225 1.36054 4.42866C1.37726 4.45225 1.39717 4.4731 1.41957 4.49057C1.39717 4.508 1.37729 4.52888 1.36054 4.55247C1.34382 4.52888 1.32395 4.508 1.30151 4.49057Z" fill="#FFE15A"/>
<path d="M8.46071 8.76982C9.24781 8.76982 9.88589 8.13175 9.88589 7.34464C9.88589 6.55754 9.24781 5.91946 8.46071 5.91946C7.6736 5.91946 7.03552 6.55754 7.03552 7.34464C7.03552 8.13175 7.6736 8.76982 8.46071 8.76982Z" fill="#FFE15A"/>
<path d="M8.56775 5.52757C8.56775 5.5866 8.51988 5.63447 8.46085 5.63447C8.40182 5.63447 8.35394 5.5866 8.35394 5.52757C8.35394 5.46853 8.46085 5.20688 8.46085 5.20688C8.46085 5.20688 8.56775 5.46853 8.56775 5.52757Z" fill="#FFE15A"/>
<path d="M8.35397 9.16202C8.35397 9.10299 8.40185 9.05511 8.46088 9.05511C8.51991 9.05511 8.56779 9.10299 8.56779 9.16202C8.56779 9.22105 8.46088 9.48271 8.46088 9.48271C8.46088 9.48271 8.35397 9.22108 8.35397 9.16202Z" fill="#FFE15A"/>
<path d="M10.2781 7.4517C10.2191 7.4517 10.1712 7.40382 10.1712 7.34479C10.1712 7.28576 10.2191 7.23788 10.2781 7.23788C10.3371 7.23788 10.5988 7.34479 10.5988 7.34479C10.5988 7.34479 10.3371 7.4517 10.2781 7.4517Z" fill="#FFE15A"/>
<path d="M6.64356 7.23788C6.70259 7.23788 6.75047 7.28576 6.75047 7.34479C6.75047 7.40382 6.70259 7.4517 6.64356 7.4517C6.58453 7.4517 6.32288 7.34479 6.32288 7.34479C6.32288 7.34479 6.58453 7.23788 6.64356 7.23788Z" fill="#FFE15A"/>
<path d="M9.82142 6.13541C9.77968 6.17716 9.71202 6.17716 9.67024 6.13541C9.62846 6.09366 9.62849 6.02601 9.67024 5.98423C9.71199 5.94244 9.97258 5.83304 9.97258 5.83304C9.97258 5.83304 9.86321 6.09366 9.82142 6.13541Z" fill="#FFE15A"/>
<path d="M7.10032 8.55417C7.14207 8.51242 7.20973 8.51242 7.25151 8.55417C7.29329 8.59592 7.29326 8.66357 7.25151 8.70535C7.20976 8.74713 6.94916 8.8565 6.94916 8.8565C6.94916 8.8565 7.05857 8.59595 7.10032 8.55417Z" fill="#FFE15A"/>
<path d="M9.67032 8.70537C9.62857 8.66362 9.62857 8.59596 9.67032 8.55418C9.71207 8.5124 9.77972 8.51243 9.8215 8.55418C9.86328 8.59593 9.97268 8.85652 9.97268 8.85652C9.97268 8.85652 9.71207 8.74708 9.67032 8.70537Z" fill="#FFE15A"/>
<path d="M7.25141 5.98422C7.29316 6.02597 7.29316 6.09363 7.25141 6.13541C7.20966 6.17719 7.142 6.17716 7.10022 6.13541C7.05844 6.09366 6.94904 5.83307 6.94904 5.83307C6.94904 5.83307 7.20966 5.9425 7.25141 5.98422Z" fill="#FFE15A"/>
<path d="M7.86427 5.62498C7.88686 5.67954 7.86095 5.74204 7.80639 5.76464C7.75183 5.78723 7.68932 5.76132 7.66673 5.70676C7.64414 5.6522 7.64276 5.36957 7.64276 5.36957C7.64276 5.36957 7.84167 5.57041 7.86427 5.62498Z" fill="#FFE15A"/>
<path d="M9.05757 9.06462C9.03498 9.01006 9.06088 8.94757 9.11544 8.92497C9.17 8.90238 9.23249 8.92829 9.25508 8.98284C9.27767 9.0374 9.27905 9.32001 9.27905 9.32001C9.27905 9.32001 9.08013 9.11918 9.05757 9.06462Z" fill="#FFE15A"/>
<path d="M10.1806 6.74818C10.1261 6.77077 10.0636 6.74486 10.041 6.6903C10.0184 6.63574 10.0443 6.57324 10.0988 6.55064C10.1534 6.52805 10.436 6.52667 10.436 6.52667C10.436 6.52667 10.2352 6.72555 10.1806 6.74818Z" fill="#FFE15A"/>
<path d="M6.74109 7.94142C6.79565 7.91883 6.85815 7.94474 6.88074 7.9993C6.90333 8.05387 6.87743 8.11638 6.82287 8.13897C6.76831 8.16157 6.48569 8.16294 6.48569 8.16294C6.48569 8.16294 6.68653 7.96405 6.74109 7.94142Z" fill="#FFE15A"/>
<path d="M9.25505 5.70678C9.23245 5.76134 9.16993 5.78722 9.1154 5.76466C9.06084 5.74206 9.03497 5.67953 9.05753 5.625C9.08012 5.57047 9.27898 5.36963 9.27898 5.36963C9.27898 5.36963 9.27764 5.65225 9.25505 5.70678Z" fill="#FFE15A"/>
<path d="M7.66676 8.9828C7.68936 8.92824 7.75189 8.90237 7.80643 8.92493C7.86099 8.94752 7.88687 9.01005 7.8643 9.06458C7.84171 9.11914 7.64282 9.31995 7.64282 9.31995C7.64282 9.31995 7.64417 9.03736 7.66676 8.9828Z" fill="#FFE15A"/>
<path d="M10.0989 8.13897C10.0443 8.11638 10.0184 8.05385 10.041 7.99931C10.0636 7.94475 10.1261 7.91888 10.1806 7.94144C10.2352 7.964 10.436 8.16291 10.436 8.16291C10.436 8.16291 10.1534 8.16159 10.0989 8.13897Z" fill="#FFE15A"/>
<path d="M6.82278 6.55061C6.87734 6.5732 6.90322 6.63573 6.88065 6.69027C6.85806 6.7448 6.79553 6.7707 6.741 6.74814C6.68647 6.72555 6.48563 6.52667 6.48563 6.52667C6.48563 6.52667 6.76828 6.52799 6.82278 6.55061Z" fill="#FFE15A"/>
<path d="M8.21127 5.54164C8.2228 5.59954 8.1852 5.65582 8.12726 5.66732C8.06935 5.67885 8.01306 5.64126 8.00156 5.58332C7.99003 5.52542 8.04384 5.24796 8.04384 5.24796C8.04384 5.24796 8.19974 5.48373 8.21127 5.54164Z" fill="#FFE15A"/>
<path d="M8.71058 9.14797C8.69904 9.09006 8.73664 9.03378 8.79457 9.02228C8.85251 9.01075 8.90876 9.04835 8.92026 9.10628C8.93179 9.16419 8.87798 9.44166 8.87798 9.44166C8.87798 9.44166 8.72207 9.20588 8.71058 9.14797Z" fill="#FFE15A"/>
<path d="M10.264 7.0951C10.2061 7.10664 10.1498 7.06904 10.1383 7.0111C10.1268 6.95316 10.1644 6.89691 10.2223 6.88541C10.2802 6.87388 10.5577 6.92769 10.5577 6.92769C10.5577 6.92769 10.3219 7.0836 10.264 7.0951Z" fill="#FFE15A"/>
<path d="M6.65767 7.59449C6.71558 7.58295 6.77186 7.62055 6.78336 7.67849C6.79489 7.73643 6.7573 7.79268 6.69936 7.80418C6.64145 7.81571 6.36398 7.7619 6.36398 7.7619C6.36398 7.7619 6.59977 7.60599 6.65767 7.59449Z" fill="#FFE15A"/>
<path d="M9.55934 5.89323C9.52656 5.94232 9.46016 5.95551 9.41106 5.92269C9.36197 5.88988 9.34879 5.82351 9.3816 5.77442C9.41438 5.72532 9.64862 5.56717 9.64862 5.56717C9.64862 5.56717 9.59212 5.8441 9.55934 5.89323Z" fill="#FFE15A"/>
<path d="M7.36241 8.79638C7.3952 8.74729 7.4616 8.7341 7.5107 8.76691C7.55979 8.79969 7.57298 8.8661 7.54017 8.91519C7.50739 8.96428 7.27313 9.12244 7.27313 9.12244C7.27313 9.12244 7.32963 8.8455 7.36241 8.79638Z" fill="#FFE15A"/>
<path d="M9.9125 8.4433C9.86341 8.41052 9.85022 8.34411 9.88303 8.29501C9.91585 8.24591 9.98223 8.23273 10.0313 8.26554C10.0804 8.29832 10.2386 8.53258 10.2386 8.53258C10.2386 8.53258 9.9616 8.47608 9.9125 8.4433Z" fill="#FFE15A"/>
<path d="M7.0093 6.24632C7.05839 6.2791 7.07158 6.34551 7.03877 6.3946C7.00599 6.44369 6.93958 6.45688 6.89048 6.42407C6.84139 6.39126 6.68323 6.15704 6.68323 6.15704C6.68323 6.15704 6.96023 6.21354 7.0093 6.24632Z" fill="#FFE15A"/>
<path d="M7.54017 5.77441C7.57295 5.82351 7.55976 5.88988 7.5107 5.92269C7.46164 5.9555 7.39523 5.94229 7.36242 5.89322C7.32963 5.84413 7.27313 5.5672 7.27313 5.5672C7.27313 5.5672 7.50739 5.72535 7.54017 5.77441Z" fill="#FFE15A"/>
<path d="M9.38161 8.91517C9.34882 8.86608 9.36201 8.7997 9.41108 8.76689C9.46014 8.73411 9.52655 8.7473 9.55937 8.79636C9.59215 8.84545 9.64865 9.12239 9.64865 9.12239C9.64865 9.12239 9.41442 8.96423 9.38161 8.91517Z" fill="#FFE15A"/>
<path d="M10.0312 6.42407C9.98214 6.45685 9.91576 6.44366 9.88295 6.3946C9.85017 6.34551 9.86335 6.27914 9.91242 6.24632C9.96152 6.21354 10.2385 6.15704 10.2385 6.15704C10.2385 6.15704 10.0803 6.39129 10.0312 6.42407Z" fill="#FFE15A"/>
<path d="M6.89045 8.26552C6.93954 8.23273 7.00592 8.24592 7.03873 8.29499C7.07152 8.34409 7.05833 8.41046 7.00926 8.44328C6.96017 8.47606 6.68323 8.53256 6.68323 8.53256C6.68323 8.53256 6.84135 8.2983 6.89045 8.26552Z" fill="#FFE15A"/>
<path d="M8.92028 5.58333C8.90875 5.64123 8.8525 5.67886 8.7946 5.66733C8.7367 5.6558 8.69907 5.59955 8.7106 5.54164C8.72214 5.48373 8.878 5.24796 8.878 5.24796C8.878 5.24796 8.93178 5.52542 8.92028 5.58333Z" fill="#FFE15A"/>
<path d="M8.00149 9.10628C8.01302 9.04837 8.06928 9.01075 8.12719 9.02228C8.1851 9.03381 8.22273 9.09006 8.2112 9.14797C8.19967 9.20587 8.04378 9.44165 8.04378 9.44165C8.04378 9.44165 7.98999 9.16419 8.00149 9.10628Z" fill="#FFE15A"/>
<path d="M10.2223 7.80418C10.1644 7.79265 10.1268 7.7364 10.1383 7.67849C10.1498 7.62058 10.2061 7.58295 10.264 7.59449C10.3219 7.60602 10.5577 7.7619 10.5577 7.7619C10.5577 7.7619 10.2802 7.81568 10.2223 7.80418Z" fill="#FFE15A"/>
<path d="M6.69942 6.8854C6.75732 6.89693 6.79495 6.95319 6.78342 7.01109C6.77188 7.069 6.71564 7.10663 6.65773 7.0951C6.59982 7.08356 6.36404 6.92768 6.36404 6.92768C6.36404 6.92768 6.64151 6.8739 6.69942 6.8854Z" fill="#FFE15A"/>
<path d="M11.8133 7.71978C11.7715 7.70221 11.7238 7.72234 11.7064 7.76384C11.7064 7.76403 11.7064 7.76403 11.7064 7.76403C11.7061 7.76481 11.7045 7.76865 11.7017 7.77521C11.6399 7.91953 11.5121 8.13043 11.383 8.32884C11.5033 7.94187 11.6132 7.52856 11.6208 7.4995C11.6323 7.45609 11.6066 7.41153 11.5633 7.39975C11.5199 7.38809 11.4752 7.41334 11.4631 7.45656C11.407 7.65756 11.2923 7.92209 11.1864 8.14603C11.2058 7.89634 11.2095 7.66503 11.2097 7.64828C11.2104 7.60406 11.1757 7.5675 11.1315 7.5654C11.0899 7.56668 11.0498 7.59703 11.0465 7.64121C10.9419 9.08084 9.55659 9.72484 9.42171 9.78409C9.35115 9.79112 9.02243 9.82815 8.72409 9.93174C8.69028 9.94349 8.66147 9.95527 8.63278 9.96696C8.62212 9.96296 8.61068 9.96071 8.59865 9.96143C7.68297 10.0277 6.95285 9.65205 6.4281 8.84731C6.03163 8.23924 5.90729 7.601 5.90607 7.59462C5.8977 7.55025 5.8552 7.52165 5.81063 7.5295C5.76626 7.53793 5.7371 7.58056 5.74551 7.62493C5.74882 7.64256 5.80338 7.92115 5.95363 8.28781C5.7526 7.97046 5.61251 7.58603 5.5632 7.38581C5.5622 7.38181 5.55964 7.37878 5.55814 7.37509C5.55582 7.36943 5.55389 7.36375 5.55048 7.35884C5.54807 7.35537 5.54492 7.35284 5.54207 7.34981C5.5376 7.34509 5.53332 7.34046 5.52785 7.33693C5.52473 7.3349 5.52123 7.3339 5.51782 7.33231C5.51179 7.3295 5.50589 7.32671 5.49917 7.32543C5.49451 7.32453 5.48976 7.32512 5.48492 7.32503C5.48001 7.32496 5.47539 7.32371 5.47035 7.32459C5.46926 7.32478 5.46842 7.32553 5.46732 7.32578C5.46626 7.326 5.46526 7.32565 5.4642 7.32587C5.45982 7.32693 5.45648 7.32968 5.45248 7.3314C5.44739 7.33362 5.44217 7.33528 5.4377 7.33837C5.43329 7.3414 5.43001 7.34534 5.42635 7.34912C5.4227 7.35287 5.41889 7.35618 5.41601 7.36053C5.4131 7.36493 5.41154 7.3699 5.40948 7.37481C5.40751 7.37959 5.40523 7.38409 5.4042 7.38925C5.40314 7.39453 5.4036 7.39996 5.40364 7.4055C5.40364 7.4099 5.40242 7.41412 5.4032 7.41862C5.40351 7.42056 5.40414 7.4225 5.40448 7.42437V7.42468C5.40457 7.42503 5.4047 7.4255 5.40479 7.42587C5.45535 7.72378 5.57585 8.03259 5.68482 8.26809C5.51179 8.07174 5.3672 7.84553 5.31595 7.71156C5.31448 7.70765 5.31151 7.70493 5.30951 7.70143C5.30648 7.69603 5.30382 7.69049 5.29973 7.68603C5.29682 7.68284 5.29329 7.68078 5.28998 7.67812C5.28501 7.67412 5.28029 7.67009 5.27454 7.66734C5.27086 7.66559 5.26686 7.66503 5.26295 7.66381C5.25692 7.662 5.25107 7.66 5.24467 7.65959C5.23964 7.65925 5.23464 7.66053 5.22954 7.66118C5.22482 7.66178 5.22017 7.66118 5.21548 7.66265C5.21457 7.66293 5.21395 7.66365 5.21311 7.66396C5.21223 7.66425 5.21136 7.66406 5.21048 7.6644C5.20604 7.66609 5.20289 7.66937 5.19892 7.67171C5.19426 7.67446 5.18929 7.67675 5.18532 7.68031C5.18126 7.68396 5.17845 7.6885 5.17526 7.69284C5.17223 7.69693 5.16886 7.70059 5.16661 7.70515C5.16426 7.70993 5.16339 7.71512 5.16204 7.72028C5.1607 7.72531 5.15892 7.73 5.15857 7.73528C5.1582 7.74056 5.15951 7.74584 5.1602 7.75118C5.16079 7.75581 5.16017 7.7604 5.16161 7.76496C5.25054 8.05184 5.46442 8.39315 5.63198 8.63359C5.49235 8.52599 5.38973 8.40962 5.35995 8.37449C5.35673 8.37068 5.35357 8.36684 5.35036 8.36303C5.32154 8.32837 5.27064 8.32343 5.23573 8.35168C5.20095 8.38009 5.19548 8.43121 5.22361 8.46612C5.22514 8.46806 5.23126 8.47571 5.24151 8.48768C5.36414 8.63359 5.49773 8.76974 5.61876 8.88471L5.4532 8.81415C5.41545 8.79787 5.37107 8.81256 5.35042 8.84846C5.32973 8.8844 5.33907 8.92987 5.3722 8.95477C5.38832 8.96674 5.68151 9.18577 5.93532 9.31524C5.91138 9.31668 5.88329 9.31493 5.85185 9.31252C5.81348 9.30884 5.77573 9.3363 5.76638 9.37524C5.7572 9.41434 5.77763 9.45427 5.81476 9.46959C5.82101 9.47215 5.89835 9.50405 5.99385 9.53805C5.97157 9.54715 5.95385 9.56584 5.94651 9.59009C5.93551 9.62634 5.95098 9.66562 5.98385 9.68443C5.99241 9.6894 6.10795 9.75565 6.25091 9.81437C6.2471 9.82027 6.24398 9.82665 6.24163 9.83368C6.23045 9.86799 6.24323 9.90568 6.27301 9.92627C6.29782 9.94333 6.85297 10.3201 7.50135 10.3201C7.54391 10.3201 7.58691 10.3185 7.63016 10.315C7.6751 10.3115 7.70872 10.2721 7.70513 10.227C7.70153 10.182 7.6625 10.148 7.6171 10.1521C7.20978 10.1854 6.81738 10.0324 6.58401 9.91555C6.61482 9.90802 6.63254 9.90118 6.63694 9.89943C6.67294 9.88474 6.69369 9.8469 6.68666 9.80874C6.67963 9.77062 6.64676 9.74265 6.60788 9.74183C6.51313 9.7399 6.38191 9.69377 6.26888 9.64427C6.31157 9.6229 6.33651 9.60243 6.33869 9.60068C6.36329 9.58009 6.37366 9.54721 6.36529 9.51624C6.35685 9.48543 6.3311 9.46227 6.29954 9.45718C6.26482 9.45143 6.22154 9.44024 6.17623 9.42652C6.22029 9.40115 6.23904 9.37321 6.24623 9.35899C6.25757 9.33634 6.25782 9.3098 6.24694 9.28699C6.23601 9.26418 6.21519 9.24771 6.19041 9.24243C6.16904 9.2378 6.14482 9.22999 6.11866 9.21977C6.12345 9.21499 6.12785 9.20955 6.13141 9.20334C6.15223 9.16805 6.14363 9.12271 6.11132 9.09734C6.10963 9.09605 6.0462 9.04627 5.95013 8.9634C5.96538 8.9578 5.97885 8.94743 5.9886 8.9334C6.0092 8.90371 6.00779 8.86396 5.98516 8.83584C5.98335 8.83359 5.91982 8.75371 5.83226 8.6324C5.86117 8.65484 5.89004 8.67777 5.91892 8.69634C5.93251 8.70496 5.94788 8.70927 5.96313 8.70927C5.98382 8.70927 6.00423 8.70146 6.01995 8.68627C6.02641 8.68002 6.03148 8.67284 6.03548 8.66518C6.08507 8.71815 6.13716 8.76624 6.19188 8.80727C6.19901 8.81262 6.20766 8.81252 6.21566 8.81521C6.23885 8.85409 6.26298 8.89302 6.28829 8.93196C6.78463 9.69565 7.48447 10.1047 8.32384 10.1293C8.24656 10.1762 8.16266 10.2247 8.02981 10.2765C8.00081 10.2878 7.97519 10.2991 7.94944 10.3104C7.937 10.3129 7.92534 10.3174 7.91563 10.3251C7.68375 10.4324 7.58775 10.5385 7.54881 10.6127C7.50994 10.6864 7.54347 10.7621 7.59094 10.8014C7.60569 10.8135 7.62447 10.8197 7.64328 10.8197C7.65622 10.8197 7.66916 10.8168 7.68088 10.8109C7.70978 10.7966 7.7291 10.7661 7.72781 10.734C7.73116 10.7303 7.74538 10.7185 7.78991 10.7171C7.82238 10.7143 7.89072 10.7217 7.97047 10.7281C8.04634 10.7343 8.13734 10.7414 8.23409 10.7464C8.17356 10.8169 8.10322 10.8987 8.10322 10.8987C8.08209 10.9233 8.07744 10.9581 8.0915 10.9873C8.10562 11.0167 8.13606 11.0349 8.16797 11.0337C8.23256 11.0315 8.27644 11.0302 8.30525 11.0296C8.33037 11.0625 8.36122 11.0756 8.38109 11.0807C8.43731 11.0951 8.49334 11.0726 8.53553 11.0459C8.56747 11.0689 8.5994 11.0786 8.62472 11.0823C8.68178 11.0901 8.73462 11.0735 8.77284 11.0547C8.81243 11.0802 8.85122 11.0868 8.88078 11.0868C8.88118 11.0868 8.88165 11.0868 8.88212 11.0868C8.9459 11.0865 9.00171 11.0556 9.04118 11.0255C9.07609 11.0462 9.10943 11.0529 9.13521 11.0541C9.19375 11.0561 9.24225 11.0336 9.2745 11.0125C9.38968 11.0356 9.48896 10.9814 9.55459 10.9215C9.58452 10.9389 9.61299 10.9432 9.63568 10.9421C9.69402 10.9401 9.73846 10.9046 9.76699 10.8728C9.89759 10.8886 9.9913 10.8645 10.0455 10.8002C10.075 10.7652 10.087 10.7258 10.0902 10.6899C10.4526 10.6878 10.4853 10.49 10.488 10.4656C10.4904 10.4434 10.4836 10.4212 10.4692 10.4041C10.4548 10.3871 10.434 10.3765 10.4117 10.3752L9.46184 10.3181C9.42209 10.3152 9.38662 10.3419 9.3774 10.3807C9.37721 10.3813 9.36103 10.4417 9.31037 10.4899C9.24218 10.555 9.1324 10.5894 9.013 10.6076C9.01343 10.5967 9.0119 10.5856 9.00771 10.5747C8.99143 10.5326 8.94403 10.5121 8.90203 10.5279C8.70593 10.604 8.38844 10.5945 8.14006 10.5772C8.17816 10.5461 8.22403 10.5152 8.26069 10.4951C8.29165 10.478 8.30828 10.4431 8.30172 10.4083C8.29697 10.383 8.27869 10.3654 8.25662 10.3541C8.32569 10.3192 8.38231 10.2855 8.43603 10.2528C8.52928 10.1956 8.61737 10.1418 8.77781 10.0861C9.0875 9.97852 9.4459 9.9458 9.44949 9.94546C9.45762 9.9448 9.46562 9.94274 9.47318 9.93971C9.48593 9.93443 10.4969 9.51093 10.9731 8.53374C10.9669 8.56327 10.9602 8.59027 10.9529 8.61387C10.9405 8.65412 10.9606 8.69706 10.9994 8.71331C11.0294 8.72593 11.0635 8.71937 11.0866 8.69799C11.0565 8.77734 11.0292 8.83974 11.007 8.87662C10.9844 8.91415 10.9953 8.96284 11.0318 8.98709C11.0403 8.99268 11.0495 8.99649 11.0589 8.99874C11.022 9.05271 10.9846 9.10377 10.9474 9.15055C10.9226 9.18168 10.924 9.22609 10.9499 9.25546C10.8859 9.32249 10.8292 9.37774 10.7861 9.41287C10.7579 9.43568 10.7487 9.47384 10.7616 9.50643C10.7201 9.53021 10.6859 9.54699 10.6622 9.55415C10.6225 9.56612 10.5981 9.60618 10.6056 9.64705C10.6095 9.66862 10.6216 9.6868 10.6383 9.69877C10.5884 9.71218 10.5337 9.72512 10.4743 9.7369C10.4409 9.74359 10.4151 9.77027 10.4096 9.80393C10.4042 9.83762 10.4201 9.87115 10.4497 9.88805C10.4523 9.88949 10.4802 9.9053 10.5229 9.92349C10.3648 9.98718 10.0825 10.0704 9.61921 10.116C9.57434 10.1205 9.54146 10.1606 9.54593 10.2054C9.55031 10.2503 9.58912 10.2814 9.63534 10.2789C10.5148 10.1919 10.7863 9.97174 10.7974 9.9623C10.8228 9.94105 10.8329 9.90643 10.8228 9.87484C10.8161 9.85393 10.8014 9.83702 10.7826 9.82724C11.0635 9.7388 11.1841 9.64093 11.1905 9.63568C11.2213 9.61012 11.229 9.56593 11.2087 9.53127C11.1883 9.49662 11.1458 9.48162 11.1086 9.49662C11.0982 9.50062 11.0815 9.50474 11.0604 9.5089C11.249 9.37977 11.4491 9.22599 11.5372 9.15737C11.5526 9.1459 11.5667 9.13484 11.5791 9.12446C11.6133 9.09574 11.618 9.04493 11.5898 9.01034C11.5618 8.97587 11.5108 8.97009 11.4758 8.99771C11.4631 9.00777 11.4498 9.01815 11.4361 9.02884C11.3955 9.05902 11.3435 9.09318 11.2868 9.12827C11.5008 8.8853 11.7162 8.6219 11.7778 8.54624C11.7834 8.53937 11.7889 8.53252 11.7945 8.52565C11.8227 8.49052 11.8172 8.43912 11.7821 8.41087C11.7469 8.38215 11.6954 8.38806 11.6672 8.42299L11.667 8.42318L11.667 8.42337C11.6654 8.42512 11.6585 8.43374 11.6469 8.44812C11.5824 8.52681 11.5145 8.60299 11.4475 8.67415C11.6655 8.27906 11.8306 7.89015 11.8548 7.83253C11.8557 7.83046 11.8565 7.8284 11.8574 7.82628C11.8747 7.78493 11.855 7.73703 11.8133 7.71978ZM7.98238 10.475L8.00469 10.4779C7.97731 10.5035 7.95503 10.5322 7.93734 10.5618C7.89853 10.5587 7.86331 10.5559 7.83572 10.5547C7.87375 10.5299 7.92269 10.5029 7.98238 10.475Z" fill="#FFE15A"/>
</svg>
