<svg width="16" height="16" viewBox="0 0 16 16" fill="none" xmlns="http://www.w3.org/2000/svg">
<path d="M0.249985 3.25H15.75V12.75H0.249985V3.25Z" fill="white"/>
<path d="M8 10.25C9.24264 10.25 10.25 9.24264 10.25 8C10.25 6.75736 9.24264 5.75 8 5.75C6.75736 5.75 5.75 6.75736 5.75 8C5.75 9.24264 6.75736 10.25 8 10.25Z" fill="#D22F27"/>
<path d="M6.03171 6.91901C5.89527 7.17944 5.8664 7.48301 5.95131 7.7645C6.03623 8.04598 6.22815 8.28295 6.48586 8.42448C6.74356 8.56602 7.0465 8.60085 7.3296 8.52148C7.6127 8.44211 7.85339 8.25488 7.99996 8.00001C8.00571 7.99001 8.00846 7.97926 8.01371 7.96926L8.01971 7.97276C8.1743 7.72168 8.42141 7.54146 8.70772 7.47098C8.99402 7.40051 9.29655 7.44543 9.55002 7.59605C9.80349 7.74668 9.98758 7.99093 10.0625 8.27609C10.1375 8.56125 10.0973 8.86445 9.95071 9.12026L9.95146 9.12076C9.80689 9.37815 9.61304 9.60454 9.38098 9.78702C9.14892 9.96949 8.88319 10.1045 8.59896 10.1842C8.02493 10.3454 7.41041 10.2719 6.89059 9.97988C6.37076 9.68791 5.98822 9.2014 5.8271 8.62737C5.66598 8.05335 5.73949 7.43883 6.03146 6.91901H6.03171Z" fill="#1E50A0"/>
<path d="M6.08271 6.82178L6.08771 6.82453C6.08021 6.83603 6.07096 6.84578 6.06396 6.85778C6.07071 6.84603 6.07571 6.83328 6.08271 6.82178Z" fill="#1E50A0"/>
<path fill-rule="evenodd" clip-rule="evenodd" d="M4.9955 9.36726C5.05529 9.33274 5.13174 9.35323 5.16626 9.41301L5.91626 10.712C5.95078 10.7718 5.93029 10.8482 5.87051 10.8828C5.81072 10.9173 5.73427 10.8968 5.69975 10.837L4.94975 9.53802C4.91523 9.47823 4.93572 9.40178 4.9955 9.36726Z" fill="black"/>
<path fill-rule="evenodd" clip-rule="evenodd" d="M4.12949 9.86726C4.18928 9.83274 4.26573 9.85323 4.30024 9.91301L5.05024 11.212C5.08476 11.2718 5.06428 11.3482 5.00449 11.3828C4.94471 11.4173 4.86826 11.3968 4.83374 11.337L4.08374 10.038C4.04922 9.97823 4.0697 9.90178 4.12949 9.86726Z" fill="black"/>
<path fill-rule="evenodd" clip-rule="evenodd" d="M4.56249 9.61726C4.62228 9.58274 4.69872 9.60323 4.73324 9.66301L4.98324 10.096C5.01776 10.1558 4.99728 10.2322 4.93749 10.2668C4.87771 10.3013 4.80126 10.2808 4.76674 10.221L4.51674 9.78802C4.48222 9.72823 4.5027 9.65178 4.56249 9.61726Z" fill="black"/>
<path fill-rule="evenodd" clip-rule="evenodd" d="M5.06249 10.4833C5.12228 10.4487 5.19872 10.4692 5.23324 10.529L5.48324 10.962C5.51776 11.0218 5.49728 11.0982 5.43749 11.1328C5.37771 11.1673 5.30126 11.1468 5.26674 11.087L5.01674 10.654C4.98222 10.5942 5.0027 10.5178 5.06249 10.4833Z" fill="black"/>
<path fill-rule="evenodd" clip-rule="evenodd" d="M10.7545 9.36726C10.8143 9.40178 10.8348 9.47823 10.8002 9.53802L10.5502 9.97102C10.5157 10.0308 10.4393 10.0513 10.3795 10.0168C10.3197 9.98225 10.2992 9.9058 10.3337 9.84601L10.5837 9.41301C10.6183 9.35323 10.6947 9.33274 10.7545 9.36726ZM11.1875 9.61726C11.2473 9.65178 11.2678 9.72823 11.2332 9.78802L10.9832 10.221C10.9487 10.2808 10.8723 10.3013 10.8125 10.2668C10.7527 10.2322 10.7322 10.1558 10.7667 10.096L11.0167 9.66301C11.0513 9.60323 11.1277 9.58274 11.1875 9.61726ZM11.6205 9.86726C11.6803 9.90178 11.7008 9.97823 11.6662 10.038L11.4162 10.471C11.3817 10.5308 11.3053 10.5513 11.2455 10.5168C11.1857 10.4822 11.1652 10.4058 11.1997 10.346L11.4497 9.91301C11.4843 9.85323 11.5607 9.83274 11.6205 9.86726ZM10.2545 10.2333C10.3143 10.2678 10.3348 10.3442 10.3002 10.404L10.0502 10.837C10.0157 10.8968 9.93928 10.9173 9.87949 10.8828C9.8197 10.8482 9.79922 10.7718 9.83374 10.712L10.0837 10.279C10.1183 10.2192 10.1947 10.1987 10.2545 10.2333ZM10.6875 10.4833C10.7473 10.5178 10.7678 10.5942 10.7332 10.654L10.4832 11.087C10.4487 11.1468 10.3723 11.1673 10.3125 11.1328C10.2527 11.0982 10.2322 11.0218 10.2667 10.962L10.5167 10.529C10.5513 10.4692 10.6277 10.4487 10.6875 10.4833ZM11.1205 10.7333C11.1803 10.7678 11.2008 10.8442 11.1662 10.904L10.9162 11.337C10.8817 11.3968 10.8053 11.4173 10.7455 11.3828C10.6857 11.3482 10.6652 11.2718 10.6997 11.212L10.9497 10.779C10.9843 10.7192 11.0607 10.6987 11.1205 10.7333Z" fill="black"/>
<path fill-rule="evenodd" clip-rule="evenodd" d="M5.00449 4.61726C5.06428 4.65178 5.08476 4.72823 5.05024 4.78802L4.30024 6.08702C4.26573 6.1468 4.18928 6.16729 4.12949 6.13277C4.0697 6.09825 4.04922 6.0218 4.08374 5.96201L4.83374 4.66301C4.86826 4.60323 4.94471 4.58274 5.00449 4.61726ZM5.43749 4.86726C5.49728 4.90178 5.51776 4.97823 5.48324 5.03802L4.73324 6.33702C4.69873 6.3968 4.62228 6.41729 4.56249 6.38277C4.5027 6.34825 4.48222 6.2718 4.51674 6.21201L5.26674 4.91301C5.30126 4.85323 5.37771 4.83274 5.43749 4.86726ZM5.87049 5.11726C5.93028 5.15178 5.95076 5.22823 5.91624 5.28802L5.16624 6.58702C5.13173 6.6468 5.05528 6.66729 4.99549 6.63277C4.9357 6.59825 4.91522 6.5218 4.94974 6.46201L5.69974 5.16301C5.73426 5.10323 5.81071 5.08274 5.87049 5.11726Z" fill="black"/>
<path fill-rule="evenodd" clip-rule="evenodd" d="M10.9955 4.61726C11.0553 4.58274 11.1317 4.60323 11.1663 4.66301L11.4163 5.09601C11.4508 5.1558 11.4303 5.23225 11.3705 5.26677C11.3107 5.30129 11.2343 5.2808 11.1998 5.22102L10.9498 4.78802C10.9152 4.72823 10.9357 4.65178 10.9955 4.61726ZM10.5625 4.86726C10.6223 4.83274 10.6987 4.85323 10.7333 4.91301L11.4833 6.21201C11.5178 6.2718 11.4973 6.34825 11.4375 6.38277C11.3777 6.41729 11.3013 6.3968 11.2668 6.33702L10.5168 5.03802C10.4822 4.97823 10.5027 4.90178 10.5625 4.86726ZM10.1295 5.11726C10.1893 5.08274 10.2657 5.10323 10.3003 5.16301L10.5503 5.59601C10.5848 5.6558 10.5643 5.73225 10.5045 5.76677C10.4447 5.80129 10.3683 5.7808 10.3338 5.72102L10.0838 5.28802C10.0492 5.22823 10.0697 5.15178 10.1295 5.11726ZM11.4955 5.48326C11.5553 5.44874 11.6317 5.46923 11.6663 5.52901L11.9163 5.96201C11.9508 6.0218 11.9303 6.09825 11.8705 6.13277C11.8107 6.16729 11.7343 6.1468 11.6998 6.08702L11.4498 5.65402C11.4152 5.59423 11.4357 5.51778 11.4955 5.48326ZM10.6295 5.98326C10.6893 5.94874 10.7657 5.96923 10.8003 6.02901L11.0503 6.46201C11.0848 6.5218 11.0643 6.59825 11.0045 6.63277C10.9447 6.66729 10.8683 6.6468 10.8338 6.58702L10.5838 6.15402C10.5492 6.09423 10.5697 6.01778 10.6295 5.98326Z" fill="black"/>
<path fill-rule="evenodd" clip-rule="evenodd" d="M0 3.25C0 3.11193 0.111929 3 0.25 3H15.75C15.8881 3 16 3.11193 16 3.25V12.75C16 12.8881 15.8881 13 15.75 13H0.25C0.111929 13 0 12.8881 0 12.75V3.25ZM0.5 3.5V12.5H15.5V3.5H0.5Z" fill="#D2D2D2"/>
</svg>
