<svg width="17" height="16" viewBox="0 0 17 16" fill="none" xmlns="http://www.w3.org/2000/svg">
<g clip-path="url(#clip0_1009_6312)">
<rect x="0.5" y="3" width="16" height="10" fill="#EC1C24"/>
<path d="M3.74274 4.51273L4.27749 5.5L5.47625 5.65795L4.60949 6.425L4.81374 7.51136L3.74274 6.99886L2.67149 7.51136L2.87599 6.425L2.00999 5.65795L3.20674 5.5L3.74274 4.51273Z" fill="#F9CB38"/>
<path d="M5.62674 3.68045L5.77499 3.95431L6.10849 3.99818L5.86774 4.21159L5.92399 4.51272L5.62674 4.37045L5.32974 4.51272L5.38599 4.21159L5.14549 3.99818L5.47824 3.95431L5.62674 3.68045Z" fill="#F9CB38"/>
<path d="M6.58951 4.66544L6.73801 4.93907L7.07001 4.98316L6.83026 5.19703L6.88676 5.49771L6.58951 5.35566L6.29251 5.49771L6.34876 5.19703L6.10851 4.98316L6.44076 4.93907L6.58951 4.66544Z" fill="#F9CB38"/>
<path d="M6.58951 6.24637L6.73801 6.52069L7.07001 6.56455L6.83026 6.77796L6.88676 7.0791L6.58951 6.93728L6.29251 7.0791L6.34876 6.77796L6.10851 6.56455L6.44076 6.52069L6.58951 6.24637Z" fill="#F9CB38"/>
<path d="M5.62674 7.35684L5.77499 7.63071L6.10849 7.67434L5.86774 7.88752L5.92399 8.18911L5.62674 8.04775L5.32974 8.18911L5.38599 7.88752L5.14549 7.67434L5.47824 7.63071L5.62674 7.35684Z" fill="#F9CB38"/>
</g>
<defs>
<clipPath id="clip0_1009_6312">
<rect width="16" height="16" fill="white" transform="translate(0.5)"/>
</clipPath>
</defs>
</svg>
