<svg width="16" height="16" viewBox="0 0 16 16" fill="none" xmlns="http://www.w3.org/2000/svg">
<path d="M0.0265808 3.03311H15.9651V12.9658H0.0265808V3.03311Z" fill="white"/>
<path d="M7.19883 8.98967V12.9658H8.79288V8.98967H15.9651V7.00397H8.79288V3.03311H7.19883V7.00397H0.0265808V8.98967H7.19883Z" fill="#CF142B"/>
<path d="M9.32533 6.24828V3.03311H14.4857L9.32533 6.24828ZM9.32533 9.75053V12.9658H14.4857L9.32533 9.75053ZM6.66822 9.75053V12.9658H1.50787L6.66822 9.75053ZM6.66822 6.24828V3.03311H1.50787L6.66822 6.24828ZM0.0275803 3.95642V6.34391H3.85945L0.0275803 3.95642ZM15.966 3.95642V6.34391H12.1342L15.966 3.95642ZM15.966 12.0424V9.65497H12.1342L15.966 12.0424ZM0.0275803 12.0424V9.65497H3.85945L0.0275803 12.0424Z" fill="#00247D"/>
<path d="M15.9651 3.03311H15.0798L9.77542 6.34391H10.6607L15.9734 3.03311H15.9651ZM6.21624 9.65477H5.33098L0.0265808 12.9656H0.911843L6.22459 9.65477H6.21624ZM4.45279 6.34649H5.338L0.0265808 3.03311V3.58841L4.45279 6.34649ZM11.5361 9.65351H10.6508L15.9623 12.9669V12.4116L11.5361 9.65351Z" fill="#CF142B"/>
</svg>
