<svg width="24" height="22" viewBox="0 0 24 22" fill="none" xmlns="http://www.w3.org/2000/svg">
<path d="M12 22C18.3513 22 23.5 17.0751 23.5 11C23.5 4.92487 18.3513 0 12 0C5.64873 0 0.5 4.92487 0.5 11C0.5 17.0751 5.64873 22 12 22Z" fill="#25D366"/>
<path fill-rule="evenodd" clip-rule="evenodd" d="M12.3791 17.1199H12.3763C11.2318 17.1195 10.1073 16.8449 9.10846 16.3237L5.4834 17.2333L6.45353 13.8439C5.8551 12.8519 5.54022 11.7267 5.54073 10.5739C5.54223 6.96743 8.60987 4.03333 12.3791 4.03333C14.2084 4.03408 15.9253 4.71526 17.2164 5.95164C18.5074 7.18795 19.2181 8.83131 19.2173 10.579C19.2158 14.1846 16.1494 17.1184 12.3791 17.1199ZM9.27642 15.1396L9.48396 15.2574C10.3566 15.7528 11.3569 16.0149 12.3768 16.0152H12.3791C15.5118 16.0152 18.0615 13.5763 18.0627 10.5786C18.0633 9.12596 17.4727 7.76007 16.3996 6.73244C15.3265 5.70482 13.8995 5.13861 12.3814 5.13811C9.24626 5.13811 6.69654 7.57675 6.6953 10.5742C6.69486 11.6015 6.99535 12.6019 7.5643 13.4675L7.69943 13.6732L7.12526 15.6794L9.27642 15.1396ZM15.5902 11.9873C15.7093 12.0424 15.7898 12.0796 15.8242 12.1344C15.8669 12.2026 15.8669 12.5298 15.7246 12.9116C15.5821 13.2934 14.8995 13.6418 14.5712 13.6887C14.2769 13.7308 13.9043 13.7484 13.495 13.624C13.2469 13.5486 12.9286 13.4481 12.521 13.2797C10.9191 12.6181 9.83664 11.1331 9.63205 10.8524C9.61771 10.8328 9.60769 10.819 9.6021 10.8119L9.60072 10.8101C9.5103 10.6947 8.90441 9.92146 8.90441 9.12118C8.90441 8.36835 9.29102 7.97375 9.46898 7.79212C9.48117 7.77968 9.49238 7.76823 9.50243 7.75774C9.65904 7.59412 9.84416 7.55321 9.95806 7.55321C10.072 7.55321 10.186 7.55422 10.2855 7.559C10.2978 7.55959 10.3106 7.55952 10.3238 7.55944C10.4234 7.55889 10.5475 7.55819 10.67 7.83955C10.7171 7.94783 10.786 8.10836 10.8587 8.27766C11.0058 8.62005 11.1682 8.99834 11.1968 9.05308C11.2395 9.1349 11.268 9.2303 11.211 9.33943C11.2025 9.35579 11.1946 9.37123 11.187 9.38598C11.1442 9.46952 11.1128 9.53097 11.0402 9.61205C11.0116 9.64394 10.9821 9.67831 10.9526 9.71268C10.8938 9.78115 10.8351 9.84962 10.7839 9.8984C10.6983 9.97989 10.6093 10.0683 10.709 10.2319C10.8086 10.3956 11.1515 10.9307 11.6595 11.3641C12.2055 11.83 12.6801 12.0269 12.9206 12.1267C12.9676 12.1462 13.0056 12.162 13.0336 12.1753C13.2044 12.2572 13.304 12.2435 13.4037 12.1344C13.5034 12.0254 13.8308 11.6572 13.9447 11.4936C14.0586 11.33 14.1726 11.3573 14.3292 11.4118C14.4858 11.4664 15.3259 11.8617 15.4967 11.9435C15.5301 11.9595 15.5613 11.9739 15.5902 11.9873Z" fill="#FDFDFD"/>
</svg>
